# Nexus 3D Scene Studio - Wavefront OBJ Exporter
# Mesh Name: Buckyball_C60_Truncated_Icosahedron
# Vertices: 60
# Faces: 20
# Triangles: 80
o Buckyball_C60_Truncated_Icosahedron

v -1.314046 1.175319 0.363193
v -1.538512 0.587659 0.726387
v -1.175319 0.363193 1.314046
v -0.587659 0.726387 1.538512
v -0.363193 1.314046 1.175319
v -0.726387 1.538512 0.587659
v 0.363193 1.314046 1.175319
v 0.726387 1.538512 0.587659
v 0.363193 1.762978 0.000000
v -0.363193 1.762978 0.000000
v 0.726387 1.538512 -0.587659
v 0.363193 1.314046 -1.175319
v -0.363193 1.314046 -1.175319
v -0.726387 1.538512 -0.587659
v -0.587659 0.726387 -1.538512
v -1.175319 0.363193 -1.314046
v -1.538512 0.587659 -0.726387
v -1.314046 1.175319 -0.363193
v -1.762978 0.000000 -0.363193
v -1.762978 0.000000 0.363193
v 0.587659 0.726387 1.538512
v 1.175319 0.363193 1.314046
v 1.538512 0.587659 0.726387
v 1.314046 1.175319 0.363193
v -1.175319 -0.363193 1.314046
v -0.587659 -0.726387 1.538512
v 0.000000 -0.363193 1.762978
v 0.000000 0.363193 1.762978
v -1.538512 -0.587659 -0.726387
v -1.314046 -1.175319 -0.363193
v -1.314046 -1.175319 0.363193
v -1.538512 -0.587659 0.726387
v 0.000000 0.363193 -1.762978
v 0.000000 -0.363193 -1.762978
v -0.587659 -0.726387 -1.538512
v -1.175319 -0.363193 -1.314046
v 1.314046 1.175319 -0.363193
v 1.538512 0.587659 -0.726387
v 1.175319 0.363193 -1.314046
v 0.587659 0.726387 -1.538512
v 1.314046 -1.175319 0.363193
v 1.538512 -0.587659 0.726387
v 1.175319 -0.363193 1.314046
v 0.587659 -0.726387 1.538512
v 0.363193 -1.314046 1.175319
v 0.726387 -1.538512 0.587659
v -0.363193 -1.314046 1.175319
v -0.726387 -1.538512 0.587659
v -0.363193 -1.762978 0.000000
v 0.363193 -1.762978 0.000000
v -0.726387 -1.538512 -0.587659
v -0.363193 -1.314046 -1.175319
v 0.363193 -1.314046 -1.175319
v 0.726387 -1.538512 -0.587659
v 0.587659 -0.726387 -1.538512
v 1.175319 -0.363193 -1.314046
v 1.538512 -0.587659 -0.726387
v 1.314046 -1.175319 -0.363193
v 1.762978 0.000000 -0.363193
v 1.762978 0.000000 0.363193

vn 0.500000 0.309017 0.809017
vn 0.500000 0.309017 0.809017
vn -0.309017 0.809017 -0.500000
vn -0.309017 0.809017 -0.500000
vn -0.809017 -0.500000 0.309017
vn -0.809017 -0.500000 0.309017
vn -0.309017 -0.809017 -0.500000
vn -0.309017 -0.809017 -0.500000
vn 0.000000 -1.000000 -0.000000
vn 0.000000 -1.000000 -0.000000
vn 0.809017 -0.500000 -0.309017
vn 0.809017 -0.500000 -0.309017
vn 0.309017 -0.809017 0.500000
vn 0.309017 -0.809017 0.500000
vn 0.309017 -0.809017 -0.500000
vn 0.309017 -0.809017 -0.500000
vn 0.809017 -0.500000 0.309017
vn 0.809017 -0.500000 0.309017
vn 0.000000 -1.000000 -0.000000
vn 0.000000 -1.000000 -0.000000
vn -0.500000 -0.309017 -0.809017
vn -0.500000 -0.309017 -0.809017
vn 0.500000 -0.309017 -0.809017
vn 0.500000 -0.309017 -0.809017
vn 0.500000 0.309017 -0.809017
vn 0.500000 0.309017 -0.809017
vn 0.000000 0.000000 -1.000000
vn 0.000000 0.000000 -1.000000
vn -0.809017 -0.500000 -0.309017
vn -0.809017 -0.500000 -0.309017
vn -0.500000 0.309017 -0.809017
vn -0.500000 0.309017 -0.809017
vn 0.000000 0.000000 -1.000000
vn 0.000000 0.000000 -1.000000
vn -0.500000 -0.309017 -0.809017
vn -0.500000 -0.309017 -0.809017
vn 0.809017 0.500000 -0.309017
vn 0.809017 0.500000 -0.309017
vn 0.500000 0.309017 -0.809017
vn 0.500000 0.309017 -0.809017
vn -0.500000 -0.309017 0.809017
vn -0.500000 -0.309017 0.809017
vn 0.309017 -0.809017 -0.500000
vn 0.309017 -0.809017 -0.500000
vn 0.809017 0.500000 0.309017
vn 0.809017 0.500000 0.309017
vn 0.309017 0.809017 -0.500000
vn 0.309017 0.809017 -0.500000
vn 0.000000 -0.000000 -1.000000
vn 0.000000 -0.000000 -1.000000
vn -0.309017 -0.809017 -0.500000
vn -0.309017 -0.809017 -0.500000
vn -0.809017 -0.500000 0.309017
vn -0.809017 -0.500000 0.309017
vn -0.309017 0.809017 -0.500000
vn -0.309017 0.809017 -0.500000
vn -0.809017 0.500000 0.309017
vn -0.809017 0.500000 0.309017
vn 0.000000 1.000000 -0.000000
vn 0.000000 1.000000 -0.000000

g Buckyball_C60_Truncated_Icosahedron_Group
s 1
f 1//1 2//2 4//4 3//3 6//6 5//5
f 5//5 6//6 8//8 7//7 10//10 9//9
f 9//9 10//10 11//11 12//12 14//14 13//13
f 13//13 14//14 15//15 16//16 18//18 17//17
f 17//17 18//18 19//19 20//20 2//2 1//1
f 7//7 8//8 21//21 22//22 24//24 23//23
f 3//3 4//4 26//26 25//25 27//27 28//28
f 20//20 19//19 30//30 29//29 31//31 32//32
f 16//16 15//15 34//34 33//33 35//35 36//36
f 12//12 11//11 37//37 38//38 40//40 39//39
f 41//41 42//42 44//44 43//43 46//46 45//45
f 45//45 46//46 48//48 47//47 49//49 50//50
f 50//50 49//49 51//51 52//52 54//54 53//53
f 53//53 54//54 55//55 56//56 58//58 57//57
f 57//57 58//58 59//59 60//60 42//42 41//41
f 43//43 44//44 22//22 21//21 28//28 27//27
f 47//47 48//48 25//25 26//26 32//32 31//31
f 52//52 51//51 29//29 30//30 36//36 35//35
f 56//56 55//55 33//33 34//34 39//39 40//40
f 60//60 59//59 38//38 37//37 23//23 24//24
