solid Fibonacci_Golden_Spiral_Sphere
  facet normal 1.796286e-01 -9.782082e-01 1.041262e-01
    outer loop
      vertex 0.000000e+00 1.800000e+00 0.000000e+00
      vertex -1.678857e-01 1.785542e+00 1.537971e-01
      vertex 2.809350e-02 1.771084e+00 -3.201110e-01
    endloop
  endfacet
  facet normal 3.690566e-01 8.800572e-01 -2.988253e-01
    outer loop
      vertex 4.260883e-01 1.727711e+00 -2.710425e-01
      vertex 7.821341e-01 1.612048e+00 -1.719500e-01
      vertex 2.995782e-01 1.655422e+00 -6.401812e-01
    endloop
  endfacet
endsolid Fibonacci_Golden_Spiral_Sphere
