# Nexus 3D Scene Studio - Wavefront OBJ Exporter
# Mesh Name: Fibonacci_Golden_Spiral_Sphere
# Vertices: 250
# Faces: 2
# Triangles: 2
o Fibonacci_Golden_Spiral_Sphere

v 0.000000 1.800000 0.000000
v -0.167886 1.785542 0.153797
v 0.028094 1.771084 -0.320111
v 0.238973 1.756627 0.311698
v -0.445683 1.742169 -0.078835
v 0.426088 1.727711 -0.271042
v -0.143316 1.713253 0.533127
v -0.274267 1.698795 -0.528084
v 0.596308 1.684337 0.217771
v -0.621104 1.669880 0.256383
v 0.299578 1.655422 -0.640181
v 0.221397 1.640964 0.705848
v -0.667099 1.626506 -0.386597
v 0.782134 1.612048 -0.171950
v -0.476943 1.597590 0.678403
v -0.110077 1.583133 -0.849455
v 0.674999 1.568675 0.568890
v -0.907195 1.554217 0.037515
v 0.660826 1.539759 -0.657610
v -0.044147 1.525301 0.954729
v -0.626898 1.510843 -0.751233
v 0.991481 1.496386 0.133402
v -0.838679 1.481928 0.583531
v 0.228780 1.467470 -1.016952
v 0.528220 1.453012 0.921813
v -1.030742 1.438554 -0.328835
v 0.999374 1.424096 -0.461736
v -0.432133 1.409639 1.032560
v -0.384925 1.395181 -1.070189
v 1.022233 1.380723 0.537257
v -1.133180 1.366265 0.298703
v 0.642805 1.351807 -0.999709
v 0.204061 1.337349 1.187373
v -0.965065 1.322892 -0.747401
v 1.231903 1.308434 -0.102061
v -0.849698 1.293976 0.918499
v 0.006176 1.279518 -1.266016
v 0.860334 1.265060 0.948392
v -1.289077 1.250602 -0.119471
v 1.042229 1.236145 -0.791015
v -0.236603 1.221687 1.300577
v -0.711103 1.207229 -1.130014
v 1.300130 1.192771 0.356312
v -1.210620 1.178313 0.621270
v 0.477317 1.163855 -1.287482
v 0.522294 1.149398 1.283002
v -1.262505 1.134940 -0.598325
v 1.346200 1.120482 -0.415048
v -0.718039 1.106024 1.225206
v -0.300495 1.091566 -1.399352
v 1.175720 1.077108 0.835176
v -1.441697 1.062651 0.179676
v 0.948476 1.048193 -1.114309
v 0.053701 1.033735 1.472586
v -1.041360 1.019277 -1.056713
v 1.491483 1.004819 0.076261
v -1.158708 0.990361 0.957382
v 0.208995 0.975904 -1.497976
v 0.862997 0.961446 1.253339
v -1.491774 0.946988 -0.343254
v 1.339553 0.932530 -0.758937
v -0.477764 0.918072 1.472714
v -0.646036 0.903614 -1.416375
v 1.440758 0.889157 0.611243
v -1.482918 0.874699 0.525219
v 0.742411 0.860241 -1.395998
v 0.397499 0.845783 1.538391
v -1.338654 0.831325 -0.870003
v 1.582104 0.816867 -0.263960
v -0.992778 0.802410 1.269067
v -0.125752 0.787952 -1.613480
v 1.187701 0.773494 1.109537
v -1.632057 0.759036 -0.015924
v 1.219129 0.744578 -1.095138
v -0.159823 0.730120 1.637492
v -0.992070 0.715663 -1.320464
v 1.629566 0.701205 0.304673
v -1.412524 0.686747 0.879293
v 0.449183 0.672289 -1.608186
v 0.757700 0.657831 1.494372
v -1.573384 0.643373 -0.592058
v 1.565163 0.628916 -0.628275
v -0.732011 0.614458 1.525320
v -0.492079 0.600000 -1.624148
v 1.464278 0.585542 0.867773
v -1.670686 0.571084 0.350244
v 0.998106 0.556627 -1.390665
v 0.203959 0.542169 1.704246
v -1.305007 0.527711 -1.121819
v 1.724414 0.513253 -0.054463
v -1.237771 0.498795 1.207943
v 0.096970 0.484337 -1.730900
v 1.100220 0.469880 1.344890
v -1.723534 0.455422 -0.249042
v 1.442178 0.440964 -0.982687
v -0.400443 0.426506 1.702274
v -0.856288 0.412048 -1.528721
v 1.667205 0.397590 0.549862
v -1.603701 0.383133 0.722048
v 0.696002 0.368675 -1.618536
v 0.581071 0.354217 1.666399
v -1.556602 0.339759 -0.837589
v 1.716207 0.325301 -0.434524
v -0.973386 0.310843 1.481856
v -0.283630 0.296386 -1.752629
v 1.394870 0.281928 1.102204
v -1.775289 0.267470 0.129653
v 1.222913 0.253012 -1.296329
v -0.026109 0.238554 1.783931
v -1.187021 0.224096 -1.334452
v 1.778427 0.209639 0.182341
v -1.435839 0.195181 1.067834
v 0.337718 0.180723 -1.758774
v 0.939746 0.166265 1.526183
v -1.725094 0.151807 -0.490921
v 1.604685 0.137349 -0.803816
v -0.640649 0.122892 1.677637
v -0.661176 0.108434 -1.670655
v 1.616774 0.093976 0.785627
v -1.723511 0.079518 0.513017
v 0.924624 0.065060 -1.542996
v 0.360584 0.050602 1.762787
v -1.456911 0.036145 -1.056458
v 1.788139 0.021687 -0.205156
v -1.180013 0.007229 1.359234
v -0.048044 -0.007229 -1.799344
v 1.250785 -0.021687 1.294243
v -1.796307 -0.036145 -0.109427
v 1.398187 -0.050602 -1.132480
v -0.265932 -0.065060 1.779058
v -1.005322 -0.079518 -1.490974
v 1.747754 -0.093976 0.420150
v -1.571834 -0.108434 0.870391
v 0.570785 -0.122892 -1.702675
v 0.728836 -0.137349 1.640102
v -1.644226 -0.151807 -0.716573
v 1.695226 -0.166265 -0.581863
v -0.856294 -0.180723 1.572927
v -0.430727 -0.195181 -1.736773
v 1.489414 -0.209639 0.988785
v -1.764429 -0.224096 0.276713
v 1.112949 -0.238554 -1.394430
v 0.121135 -0.253012 1.778008
v -1.288818 -0.267470 -1.227765
v 1.777446 -0.281928 0.034688
v -1.332299 -0.296386 1.173514
v 0.189434 -0.310843 -1.762808
v 1.049538 -0.325301 1.425710
v -1.734284 -0.339759 -0.341796
v 1.507261 -0.354217 -0.917985
v -0.490492 -0.368675 1.692187
v -0.780013 -0.383133 -1.576322
v 1.636952 -0.397590 0.634279
v -1.632378 -0.412048 0.636835
v 0.771960 -0.426506 -1.569130
v 0.489705 -0.440964 1.675034
v -1.489384 -0.455422 -0.902401
v 1.704017 -0.469880 -0.339910
v -1.024535 -0.484337 1.398480
v -0.188752 -0.498795 -1.719179
v 1.297284 -0.513253 1.137377
v -1.720498 -0.527711 0.037541
v 1.240032 -0.542169 -1.186750
v -0.112419 -0.556627 1.708078
v -1.067912 -0.571084 -1.331700
v 1.682148 -0.585542 0.259841
v -1.411689 -0.600000 0.941877
v 0.403471 -0.614458 -1.643062
v 0.809810 -0.628916 1.479416
v -1.591290 -0.643373 -0.542095
v 1.534415 -0.657831 -0.672926
v -0.674552 -0.672289 1.527418
v -0.532476 -0.686747 -1.576340
v 1.452142 -0.701205 0.799747
v -1.604971 -0.715663 0.389738
v 0.916659 -0.730120 -1.366258
v 0.246004 -0.744578 1.620211
v -1.270658 -0.759036 -1.024349
v 1.622094 -0.773494 -0.102565
v -1.121975 -0.787952 1.166321
v 0.039297 -0.802410 -1.610775
v 1.054300 -0.816867 1.208792
v -1.586537 -0.831325 -0.178325
v 1.284167 -0.845783 -0.935716
v -0.313296 -0.860241 1.549784
v -0.811746 -0.874699 -1.347579
v 1.501039 -0.889157 0.443036
v -1.398627 -0.903614 0.683611
v 0.566428 -0.918072 -1.440938
v 0.552563 -0.932530 1.437032
v -1.370222 -0.946988 -0.682426
v 1.462643 -0.961446 -0.419878
v -0.790062 -0.975904 1.289734
v -0.286837 -0.990361 -1.475435
v 1.200409 -1.004819 0.888458
v -1.475512 -1.019277 0.154718
v 0.976832 -1.033735 -1.103264
v 0.024785 -1.048193 1.463105
v -0.999390 -1.062651 -1.054511
v 1.438572 -1.077108 0.101731
v -1.120930 -1.091566 0.889943
v 0.223637 -1.106024 -1.402390
v 0.776129 -1.120482 1.175647
v -1.355158 -1.134940 -0.339791
v 1.218337 -1.149398 -0.659196
v -0.449118 -1.163855 1.297588
v -0.540423 -1.178313 -1.248808
v 1.230497 -1.192771 0.550612
v -1.266992 -1.207229 0.421106
v 0.643355 -1.221687 -1.154805
v 0.302546 -1.236145 1.272954
v -1.071524 -1.250602 -0.726519
v 1.266891 -1.265060 -0.186039
v -0.799376 -1.279518 0.981749
v -0.072866 -1.293976 -1.249126
v 0.886652 -1.308434 0.861307
v -1.220115 -1.322892 -0.035723
v 0.911804 -1.337349 -0.787470
v -0.138514 -1.351807 1.180437
v -0.685499 -1.366265 -0.950479
v 1.130791 -1.380723 0.234342
v -0.977064 -1.395181 0.582080
v 0.322096 -1.409639 -1.071995
v 0.478597 -1.424096 0.991410
v -1.004978 -1.438554 -0.400725
v 0.993495 -1.453012 -0.376463
v -0.469244 -1.467470 0.930775
v -0.277120 -1.481928 -0.983410
v 0.850519 -1.496386 0.526732
v -0.961361 -1.510843 0.182034
v 0.572326 -1.525301 -0.765441
v 0.092699 -1.539759 0.927658
v -0.676857 -1.554217 -0.605207
v 0.882693 -1.568675 -0.010646
v -0.624576 -1.583133 0.586171
v 0.062533 -1.597590 -0.826919
v 0.494874 -1.612048 0.629603
v -0.760802 -1.626506 -0.125133
v 0.619339 -1.640964 -0.404546
v -0.175246 -1.655422 0.684739
v -0.316870 -1.669880 -0.592533
v 0.598891 -1.684337 0.210564
v -0.547262 -1.698795 0.233665
v 0.227939 -1.713253 -0.502800
v 0.156935 -1.727711 0.479986
v -0.394304 -1.742169 -0.222199
v 0.382558 -1.756627 -0.088954
v -0.181629 -1.771084 0.265087
v -0.031980 -1.785542 -0.225425
v 0.000000 -1.800000 0.000000

vn 0.179629 -0.978208 0.104126
vn 0.179629 -0.978208 0.104126
vn 0.179629 -0.978208 0.104126
vn 0.000000 1.000000 0.000000
vn 0.000000 1.000000 0.000000
vn 0.369057 0.880057 -0.298825
vn 0.000000 1.000000 0.000000
vn 0.000000 1.000000 0.000000
vn 0.000000 1.000000 0.000000
vn 0.000000 1.000000 0.000000
vn 0.369057 0.880057 -0.298825
vn 0.000000 1.000000 0.000000
vn 0.000000 1.000000 0.000000
vn 0.369057 0.880057 -0.298825
vn 0.000000 1.000000 0.000000
vn 0.000000 1.000000 0.000000
vn 0.000000 1.000000 0.000000
vn 0.000000 1.000000 0.000000
vn 0.000000 1.000000 0.000000
vn 0.000000 1.000000 0.000000
vn 0.000000 1.000000 0.000000
vn 0.000000 1.000000 0.000000
vn 0.000000 1.000000 0.000000
vn 0.000000 1.000000 0.000000
vn 0.000000 1.000000 0.000000
vn 0.000000 1.000000 0.000000
vn 0.000000 1.000000 0.000000
vn 0.000000 1.000000 0.000000
vn 0.000000 1.000000 0.000000
vn 0.000000 1.000000 0.000000
vn 0.000000 1.000000 0.000000
vn 0.000000 1.000000 0.000000
vn 0.000000 1.000000 0.000000
vn 0.000000 1.000000 0.000000
vn 0.000000 1.000000 0.000000
vn 0.000000 1.000000 0.000000
vn 0.000000 1.000000 0.000000
vn 0.000000 1.000000 0.000000
vn 0.000000 1.000000 0.000000
vn 0.000000 1.000000 0.000000
vn 0.000000 1.000000 0.000000
vn 0.000000 1.000000 0.000000
vn 0.000000 1.000000 0.000000
vn 0.000000 1.000000 0.000000
vn 0.000000 1.000000 0.000000
vn 0.000000 1.000000 0.000000
vn 0.000000 1.000000 0.000000
vn 0.000000 1.000000 0.000000
vn 0.000000 1.000000 0.000000
vn 0.000000 1.000000 0.000000
vn 0.000000 1.000000 0.000000
vn 0.000000 1.000000 0.000000
vn 0.000000 1.000000 0.000000
vn 0.000000 1.000000 0.000000
vn 0.000000 1.000000 0.000000
vn 0.000000 1.000000 0.000000
vn 0.000000 1.000000 0.000000
vn 0.000000 1.000000 0.000000
vn 0.000000 1.000000 0.000000
vn 0.000000 1.000000 0.000000
vn 0.000000 1.000000 0.000000
vn 0.000000 1.000000 0.000000
vn 0.000000 1.000000 0.000000
vn 0.000000 1.000000 0.000000
vn 0.000000 1.000000 0.000000
vn 0.000000 1.000000 0.000000
vn 0.000000 1.000000 0.000000
vn 0.000000 1.000000 0.000000
vn 0.000000 1.000000 0.000000
vn 0.000000 1.000000 0.000000
vn 0.000000 1.000000 0.000000
vn 0.000000 1.000000 0.000000
vn 0.000000 1.000000 0.000000
vn 0.000000 1.000000 0.000000
vn 0.000000 1.000000 0.000000
vn 0.000000 1.000000 0.000000
vn 0.000000 1.000000 0.000000
vn 0.000000 1.000000 0.000000
vn 0.000000 1.000000 0.000000
vn 0.000000 1.000000 0.000000
vn 0.000000 1.000000 0.000000
vn 0.000000 1.000000 0.000000
vn 0.000000 1.000000 0.000000
vn 0.000000 1.000000 0.000000
vn 0.000000 1.000000 0.000000
vn 0.000000 1.000000 0.000000
vn 0.000000 1.000000 0.000000
vn 0.000000 1.000000 0.000000
vn 0.000000 1.000000 0.000000
vn 0.000000 1.000000 0.000000
vn 0.000000 1.000000 0.000000
vn 0.000000 1.000000 0.000000
vn 0.000000 1.000000 0.000000
vn 0.000000 1.000000 0.000000
vn 0.000000 1.000000 0.000000
vn 0.000000 1.000000 0.000000
vn 0.000000 1.000000 0.000000
vn 0.000000 1.000000 0.000000
vn 0.000000 1.000000 0.000000
vn 0.000000 1.000000 0.000000
vn 0.000000 1.000000 0.000000
vn 0.000000 1.000000 0.000000
vn 0.000000 1.000000 0.000000
vn 0.000000 1.000000 0.000000
vn 0.000000 1.000000 0.000000
vn 0.000000 1.000000 0.000000
vn 0.000000 1.000000 0.000000
vn 0.000000 1.000000 0.000000
vn 0.000000 1.000000 0.000000
vn 0.000000 1.000000 0.000000
vn 0.000000 1.000000 0.000000
vn 0.000000 1.000000 0.000000
vn 0.000000 1.000000 0.000000
vn 0.000000 1.000000 0.000000
vn 0.000000 1.000000 0.000000
vn 0.000000 1.000000 0.000000
vn 0.000000 1.000000 0.000000
vn 0.000000 1.000000 0.000000
vn 0.000000 1.000000 0.000000
vn 0.000000 1.000000 0.000000
vn 0.000000 1.000000 0.000000
vn 0.000000 1.000000 0.000000
vn 0.000000 1.000000 0.000000
vn 0.000000 1.000000 0.000000
vn 0.000000 1.000000 0.000000
vn 0.000000 1.000000 0.000000
vn 0.000000 1.000000 0.000000
vn 0.000000 1.000000 0.000000
vn 0.000000 1.000000 0.000000
vn 0.000000 1.000000 0.000000
vn 0.000000 1.000000 0.000000
vn 0.000000 1.000000 0.000000
vn 0.000000 1.000000 0.000000
vn 0.000000 1.000000 0.000000
vn 0.000000 1.000000 0.000000
vn 0.000000 1.000000 0.000000
vn 0.000000 1.000000 0.000000
vn 0.000000 1.000000 0.000000
vn 0.000000 1.000000 0.000000
vn 0.000000 1.000000 0.000000
vn 0.000000 1.000000 0.000000
vn 0.000000 1.000000 0.000000
vn 0.000000 1.000000 0.000000
vn 0.000000 1.000000 0.000000
vn 0.000000 1.000000 0.000000
vn 0.000000 1.000000 0.000000
vn 0.000000 1.000000 0.000000
vn 0.000000 1.000000 0.000000
vn 0.000000 1.000000 0.000000
vn 0.000000 1.000000 0.000000
vn 0.000000 1.000000 0.000000
vn 0.000000 1.000000 0.000000
vn 0.000000 1.000000 0.000000
vn 0.000000 1.000000 0.000000
vn 0.000000 1.000000 0.000000
vn 0.000000 1.000000 0.000000
vn 0.000000 1.000000 0.000000
vn 0.000000 1.000000 0.000000
vn 0.000000 1.000000 0.000000
vn 0.000000 1.000000 0.000000
vn 0.000000 1.000000 0.000000
vn 0.000000 1.000000 0.000000
vn 0.000000 1.000000 0.000000
vn 0.000000 1.000000 0.000000
vn 0.000000 1.000000 0.000000
vn 0.000000 1.000000 0.000000
vn 0.000000 1.000000 0.000000
vn 0.000000 1.000000 0.000000
vn 0.000000 1.000000 0.000000
vn 0.000000 1.000000 0.000000
vn 0.000000 1.000000 0.000000
vn 0.000000 1.000000 0.000000
vn 0.000000 1.000000 0.000000
vn 0.000000 1.000000 0.000000
vn 0.000000 1.000000 0.000000
vn 0.000000 1.000000 0.000000
vn 0.000000 1.000000 0.000000
vn 0.000000 1.000000 0.000000
vn 0.000000 1.000000 0.000000
vn 0.000000 1.000000 0.000000
vn 0.000000 1.000000 0.000000
vn 0.000000 1.000000 0.000000
vn 0.000000 1.000000 0.000000
vn 0.000000 1.000000 0.000000
vn 0.000000 1.000000 0.000000
vn 0.000000 1.000000 0.000000
vn 0.000000 1.000000 0.000000
vn 0.000000 1.000000 0.000000
vn 0.000000 1.000000 0.000000
vn 0.000000 1.000000 0.000000
vn 0.000000 1.000000 0.000000
vn 0.000000 1.000000 0.000000
vn 0.000000 1.000000 0.000000
vn 0.000000 1.000000 0.000000
vn 0.000000 1.000000 0.000000
vn 0.000000 1.000000 0.000000
vn 0.000000 1.000000 0.000000
vn 0.000000 1.000000 0.000000
vn 0.000000 1.000000 0.000000
vn 0.000000 1.000000 0.000000
vn 0.000000 1.000000 0.000000
vn 0.000000 1.000000 0.000000
vn 0.000000 1.000000 0.000000
vn 0.000000 1.000000 0.000000
vn 0.000000 1.000000 0.000000
vn 0.000000 1.000000 0.000000
vn 0.000000 1.000000 0.000000
vn 0.000000 1.000000 0.000000
vn 0.000000 1.000000 0.000000
vn 0.000000 1.000000 0.000000
vn 0.000000 1.000000 0.000000
vn 0.000000 1.000000 0.000000
vn 0.000000 1.000000 0.000000
vn 0.000000 1.000000 0.000000
vn 0.000000 1.000000 0.000000
vn 0.000000 1.000000 0.000000
vn 0.000000 1.000000 0.000000
vn 0.000000 1.000000 0.000000
vn 0.000000 1.000000 0.000000
vn 0.000000 1.000000 0.000000
vn 0.000000 1.000000 0.000000
vn 0.000000 1.000000 0.000000
vn 0.000000 1.000000 0.000000
vn 0.000000 1.000000 0.000000
vn 0.000000 1.000000 0.000000
vn 0.000000 1.000000 0.000000
vn 0.000000 1.000000 0.000000
vn 0.000000 1.000000 0.000000
vn 0.000000 1.000000 0.000000
vn 0.000000 1.000000 0.000000
vn 0.000000 1.000000 0.000000
vn 0.000000 1.000000 0.000000
vn 0.000000 1.000000 0.000000
vn 0.000000 1.000000 0.000000
vn 0.000000 1.000000 0.000000
vn 0.000000 1.000000 0.000000
vn 0.000000 1.000000 0.000000
vn 0.000000 1.000000 0.000000
vn 0.000000 1.000000 0.000000
vn 0.000000 1.000000 0.000000
vn 0.000000 1.000000 0.000000
vn 0.000000 1.000000 0.000000
vn 0.000000 1.000000 0.000000
vn 0.000000 1.000000 0.000000
vn 0.000000 1.000000 0.000000
vn 0.000000 1.000000 0.000000
vn 0.000000 1.000000 0.000000
vn 0.000000 1.000000 0.000000
vn 0.000000 1.000000 0.000000
vn 0.000000 1.000000 0.000000

g Fibonacci_Golden_Spiral_Sphere_Group
s 1
f 1//1 2//2 3//3
f 6//6 14//14 11//11
