# Nexus 3D Scene Studio - Wavefront OBJ Exporter
# Mesh Name: Mobius_Strip_Parametric_Surface
# Vertices: 540
# Faces: 480
# Triangles: 960
o Mobius_Strip_Parametric_Surface

v 1.400000 0.000000 -0.000000
v 1.500000 0.000000 -0.000000
v 1.600000 0.000000 -0.000000
v 1.700000 0.000000 -0.000000
v 1.800000 0.000000 0.000000
v 1.900000 0.000000 0.000000
v 2.000000 0.000000 0.000000
v 2.100000 0.000000 0.000000
v 2.200000 0.000000 0.000000
v 1.392876 0.146397 -0.020934
v 1.492192 0.156836 -0.015701
v 1.591508 0.167274 -0.010467
v 1.690824 0.177713 -0.005234
v 1.790139 0.188151 0.000000
v 1.889455 0.198590 0.005234
v 1.988771 0.209028 0.010467
v 2.088087 0.219467 0.015701
v 2.187403 0.229905 0.020934
v 1.371550 0.291532 -0.041811
v 1.468829 0.312209 -0.031359
v 1.566108 0.332886 -0.020906
v 1.663387 0.353564 -0.010453
v 1.760666 0.374241 0.000000
v 1.857945 0.394918 0.010453
v 1.955224 0.415596 0.020906
v 2.052502 0.436273 0.031359
v 2.149781 0.456950 0.041811
v 1.336163 0.434146 -0.062574
v 1.430097 0.464667 -0.046930
v 1.524032 0.495188 -0.031287
v 1.617967 0.525709 -0.015643
v 1.711902 0.556231 0.000000
v 1.805836 0.586752 0.015643
v 1.899771 0.617273 0.031287
v 1.993706 0.647794 0.046930
v 2.087641 0.678316 0.062574
v 1.286949 0.572987 -0.083165
v 1.376307 0.612771 -0.062374
v 1.465665 0.652556 -0.041582
v 1.555024 0.692341 -0.020791
v 1.644382 0.732126 0.000000
v 1.733740 0.771911 0.020791
v 1.823098 0.811696 0.041582
v 1.912457 0.851480 0.062374
v 2.001815 0.891265 0.083165
v 1.224239 0.706815 -0.103528
v 1.307891 0.755111 -0.077646
v 1.391542 0.803407 -0.051764
v 1.475194 0.851704 -0.025882
v 1.558846 0.900000 0.000000
v 1.642497 0.948296 0.025882
v 1.726149 0.996593 0.051764
v 1.809801 1.044889 0.077646
v 1.893452 1.093185 0.103528
v 1.148462 0.834407 -0.123607
v 1.225404 0.890308 -0.092705
v 1.302346 0.946210 -0.061803
v 1.379289 1.002112 -0.030902
v 1.456231 1.058013 0.000000
v 1.533173 1.113915 0.030902
v 1.610115 1.169817 0.061803
v 1.687057 1.225719 0.092705
v 1.763999 1.281620 0.123607
v 1.060147 0.954560 -0.143347
v 1.129525 1.017029 -0.107510
v 1.198904 1.079498 -0.071674
v 1.268282 1.141966 -0.035837
v 1.337661 1.204435 0.000000
v 1.407039 1.266904 0.035837
v 1.476418 1.329373 0.071674
v 1.545796 1.391841 0.107510
v 1.615175 1.454310 0.143347
v 0.959923 1.066102 -0.162695
v 1.021051 1.133992 -0.122021
v 1.082179 1.201881 -0.081347
v 1.143307 1.269771 -0.040674
v 1.204435 1.337661 0.000000
v 1.265563 1.405550 0.040674
v 1.326691 1.473440 0.081347
v 1.387819 1.541330 0.122021
v 1.448948 1.609219 0.162695
v 0.848525 1.167895 -0.181596
v 0.900897 1.239979 -0.136197
v 0.953269 1.312063 -0.090798
v 1.005641 1.384147 -0.045399
v 1.058013 1.456231 0.000000
v 1.110386 1.528315 0.045399
v 1.162758 1.600398 0.090798
v 1.215130 1.672482 0.136197
v 1.267502 1.744566 0.181596
v 0.726795 1.258846 -0.200000
v 0.770096 1.333846 -0.150000
v 0.813397 1.408846 -0.100000
v 0.856699 1.483846 -0.050000
v 0.900000 1.558846 0.000000
v 0.943301 1.633846 0.050000
v 0.986603 1.708846 0.100000
v 1.029904 1.783846 0.150000
v 1.073205 1.858846 0.200000
v 0.595679 1.337916 -0.217856
v 0.629791 1.414533 -0.163392
v 0.663902 1.491149 -0.108928
v 0.698014 1.567765 -0.054464
v 0.732126 1.644382 0.000000
v 0.766238 1.720998 0.054464
v 0.800350 1.797615 0.108928
v 0.834461 1.874231 0.163392
v 0.868573 1.950847 0.217856
v 0.456231 1.404133 -0.235114
v 0.481231 1.481075 -0.176336
v 0.506231 1.558018 -0.117557
v 0.531231 1.634960 -0.058779
v 0.556231 1.711902 0.000000
v 0.581231 1.788844 0.058779
v 0.606231 1.865786 0.117557
v 0.631231 1.942728 0.176336
v 0.656231 2.019670 0.235114
v 0.309610 1.456600 -0.251728
v 0.325768 1.532617 -0.188796
v 0.341925 1.608633 -0.125864
v 0.358083 1.684649 -0.062932
v 0.374241 1.760666 0.000000
v 0.390399 1.836682 0.062932
v 0.406557 1.912698 0.125864
v 0.422714 1.988715 0.188796
v 0.438872 2.064731 0.251728
v 0.157079 1.494510 -0.267652
v 0.164847 1.568417 -0.200739
v 0.172615 1.642325 -0.133826
v 0.180383 1.716232 -0.066913
v 0.188151 1.790139 0.000000
v 0.195919 1.864047 0.066913
v 0.203687 1.937954 0.133826
v 0.211455 2.011862 0.200739
v 0.219223 2.085769 0.267652
v 0.000000 1.517157 -0.282843
v 0.000000 1.587868 -0.212132
v 0.000000 1.658579 -0.141421
v 0.000000 1.729289 -0.070711
v 0.000000 1.800000 0.000000
v 0.000000 1.870711 0.070711
v 0.000000 1.941421 0.141421
v 0.000000 2.012132 0.212132
v 0.000000 2.082843 0.282843
v -0.160174 1.523953 -0.297258
v -0.167168 1.590500 -0.222943
v -0.174163 1.657046 -0.148629
v -0.181157 1.723593 -0.074314
v -0.188151 1.790139 0.000000
v -0.195146 1.856686 0.074314
v -0.202140 1.923232 0.148629
v -0.209134 1.989779 0.222943
v -0.216129 2.056325 0.297258
v -0.321904 1.514438 -0.310858
v -0.334988 1.575995 -0.233144
v -0.348072 1.637552 -0.155429
v -0.361157 1.699109 -0.077715
v -0.374241 1.760666 0.000000
v -0.387325 1.822223 0.077715
v -0.400410 1.883779 0.155429
v -0.413494 1.945336 0.233144
v -0.426578 2.006893 0.310858
v -0.483576 1.488295 -0.323607
v -0.501740 1.544197 -0.242705
v -0.519903 1.600098 -0.161803
v -0.538067 1.656000 -0.080902
v -0.556231 1.711902 0.000000
v -0.574394 1.767803 0.080902
v -0.592558 1.823705 0.161803
v -0.610721 1.879607 0.242705
v -0.628885 1.935509 0.323607
v -0.643516 1.445361 -0.335468
v -0.665669 1.495116 -0.251601
v -0.687821 1.544871 -0.167734
v -0.709973 1.594627 -0.083867
v -0.732126 1.644382 0.000000
v -0.754278 1.694137 0.083867
v -0.776431 1.743892 0.167734
v -0.798583 1.793648 0.251601
v -0.820736 1.843403 0.335468
v -0.800000 1.385641 -0.346410
v -0.825000 1.428942 -0.259808
v -0.850000 1.472243 -0.173205
v -0.875000 1.515544 -0.086603
v -0.900000 1.558846 0.000000
v -0.925000 1.602147 0.086603
v -0.950000 1.645448 0.173205
v -0.975000 1.688750 0.259808
v -1.000000 1.732051 0.346410
v -0.951274 1.309316 -0.356403
v -0.977959 1.346045 -0.267302
v -1.004644 1.382773 -0.178201
v -1.031329 1.419502 -0.089101
v -1.058013 1.456231 0.000000
v -1.084698 1.492959 0.089101
v -1.111383 1.529688 0.178201
v -1.138068 1.566416 0.267302
v -1.164753 1.603145 0.356403
v -1.095571 1.216755 -0.365418
v -1.122787 1.246981 -0.274064
v -1.150003 1.277208 -0.182709
v -1.177219 1.307434 -0.091355
v -1.204435 1.337661 0.000000
v -1.231651 1.367887 0.091355
v -1.258867 1.398114 0.182709
v -1.286083 1.428340 0.274064
v -1.313299 1.458566 0.365418
v -1.231133 1.108517 -0.373432
v -1.257765 1.132497 -0.280074
v -1.284397 1.156476 -0.186716
v -1.311029 1.180456 -0.093358
v -1.337661 1.204435 0.000000
v -1.364293 1.228415 0.093358
v -1.390925 1.252394 0.186716
v -1.417556 1.276374 0.280074
v -1.444188 1.300353 0.373432
v -1.356231 0.985359 -0.380423
v -1.381231 1.003523 -0.285317
v -1.406231 1.021686 -0.190211
v -1.431231 1.039850 -0.095106
v -1.456231 1.058013 0.000000
v -1.481231 1.076177 0.095106
v -1.506231 1.094341 0.190211
v -1.531231 1.112504 0.285317
v -1.556231 1.130668 0.380423
v -1.469188 0.848236 -0.386370
v -1.491603 0.861177 -0.289778
v -1.514017 0.874118 -0.193185
v -1.536431 0.887059 -0.096593
v -1.558846 0.900000 0.000000
v -1.581260 0.912941 0.096593
v -1.603675 0.925882 0.193185
v -1.626089 0.938823 0.289778
v -1.648503 0.951764 0.386370
v -1.568407 0.698300 -0.391259
v -1.587401 0.706756 -0.293444
v -1.606394 0.715213 -0.195630
v -1.625388 0.723669 -0.097815
v -1.644382 0.732126 0.000000
v -1.663376 0.740582 0.097815
v -1.682369 0.749039 0.195630
v -1.701363 0.757496 0.293444
v -1.720357 0.765952 0.391259
v -1.652391 0.536894 -0.395075
v -1.667268 0.541728 -0.296307
v -1.682146 0.546562 -0.197538
v -1.697024 0.551396 -0.098769
v -1.711902 0.556231 0.000000
v -1.726780 0.561065 0.098769
v -1.741657 0.565899 0.197538
v -1.756535 0.570733 0.296307
v -1.771413 0.575567 0.395075
v -1.719768 0.365548 -0.397809
v -1.729992 0.367721 -0.298357
v -1.740217 0.369895 -0.198904
v -1.750441 0.372068 -0.099452
v -1.760666 0.374241 0.000000
v -1.770890 0.376414 0.099452
v -1.781115 0.378588 0.198904
v -1.791339 0.380761 0.298357
v -1.801563 0.382934 0.397809
v -1.769320 0.185963 -0.399452
v -1.774525 0.186510 -0.299589
v -1.779730 0.187057 -0.199726
v -1.784934 0.187604 -0.099863
v -1.790139 0.188151 0.000000
v -1.795344 0.188698 0.099863
v -1.800549 0.189245 0.199726
v -1.805754 0.189792 0.299589
v -1.810959 0.190339 0.399452
v -1.800000 0.000000 -0.400000
v -1.800000 0.000000 -0.300000
v -1.800000 0.000000 -0.200000
v -1.800000 0.000000 -0.100000
v -1.800000 0.000000 0.000000
v -1.800000 0.000000 0.100000
v -1.800000 0.000000 0.200000
v -1.800000 0.000000 0.300000
v -1.800000 0.000000 0.400000
v -1.810959 -0.190339 -0.399452
v -1.805754 -0.189792 -0.299589
v -1.800549 -0.189245 -0.199726
v -1.795344 -0.188698 -0.099863
v -1.790139 -0.188151 0.000000
v -1.784934 -0.187604 0.099863
v -1.779730 -0.187057 0.199726
v -1.774525 -0.186510 0.299589
v -1.769320 -0.185963 0.399452
v -1.801563 -0.382934 -0.397809
v -1.791339 -0.380761 -0.298357
v -1.781115 -0.378588 -0.198904
v -1.770890 -0.376414 -0.099452
v -1.760666 -0.374241 0.000000
v -1.750441 -0.372068 0.099452
v -1.740217 -0.369895 0.198904
v -1.729992 -0.367721 0.298357
v -1.719768 -0.365548 0.397809
v -1.771413 -0.575567 -0.395075
v -1.756535 -0.570733 -0.296307
v -1.741657 -0.565899 -0.197538
v -1.726780 -0.561065 -0.098769
v -1.711902 -0.556231 0.000000
v -1.697024 -0.551396 0.098769
v -1.682146 -0.546562 0.197538
v -1.667268 -0.541728 0.296307
v -1.652391 -0.536894 0.395075
v -1.720357 -0.765952 -0.391259
v -1.701363 -0.757496 -0.293444
v -1.682369 -0.749039 -0.195630
v -1.663376 -0.740582 -0.097815
v -1.644382 -0.732126 0.000000
v -1.625388 -0.723669 0.097815
v -1.606394 -0.715213 0.195630
v -1.587401 -0.706756 0.293444
v -1.568407 -0.698300 0.391259
v -1.648503 -0.951764 -0.386370
v -1.626089 -0.938823 -0.289778
v -1.603675 -0.925882 -0.193185
v -1.581260 -0.912941 -0.096593
v -1.558846 -0.900000 0.000000
v -1.536431 -0.887059 0.096593
v -1.514017 -0.874118 0.193185
v -1.491603 -0.861177 0.289778
v -1.469188 -0.848236 0.386370
v -1.556231 -1.130668 -0.380423
v -1.531231 -1.112504 -0.285317
v -1.506231 -1.094341 -0.190211
v -1.481231 -1.076177 -0.095106
v -1.456231 -1.058013 0.000000
v -1.431231 -1.039850 0.095106
v -1.406231 -1.021686 0.190211
v -1.381231 -1.003523 0.285317
v -1.356231 -0.985359 0.380423
v -1.444188 -1.300353 -0.373432
v -1.417556 -1.276374 -0.280074
v -1.390925 -1.252394 -0.186716
v -1.364293 -1.228415 -0.093358
v -1.337661 -1.204435 0.000000
v -1.311029 -1.180456 0.093358
v -1.284397 -1.156476 0.186716
v -1.257765 -1.132497 0.280074
v -1.231133 -1.108517 0.373432
v -1.313299 -1.458566 -0.365418
v -1.286083 -1.428340 -0.274064
v -1.258867 -1.398114 -0.182709
v -1.231651 -1.367887 -0.091355
v -1.204435 -1.337661 0.000000
v -1.177219 -1.307434 0.091355
v -1.150003 -1.277208 0.182709
v -1.122787 -1.246981 0.274064
v -1.095571 -1.216755 0.365418
v -1.164753 -1.603145 -0.356403
v -1.138068 -1.566416 -0.267302
v -1.111383 -1.529688 -0.178201
v -1.084698 -1.492959 -0.089101
v -1.058013 -1.456231 0.000000
v -1.031329 -1.419502 0.089101
v -1.004644 -1.382773 0.178201
v -0.977959 -1.346045 0.267302
v -0.951274 -1.309316 0.356403
v -1.000000 -1.732051 -0.346410
v -0.975000 -1.688750 -0.259808
v -0.950000 -1.645448 -0.173205
v -0.925000 -1.602147 -0.086603
v -0.900000 -1.558846 0.000000
v -0.875000 -1.515544 0.086603
v -0.850000 -1.472243 0.173205
v -0.825000 -1.428942 0.259808
v -0.800000 -1.385641 0.346410
v -0.820736 -1.843403 -0.335468
v -0.798583 -1.793648 -0.251601
v -0.776431 -1.743892 -0.167734
v -0.754278 -1.694137 -0.083867
v -0.732126 -1.644382 0.000000
v -0.709973 -1.594627 0.083867
v -0.687821 -1.544871 0.167734
v -0.665669 -1.495116 0.251601
v -0.643516 -1.445361 0.335468
v -0.628885 -1.935509 -0.323607
v -0.610721 -1.879607 -0.242705
v -0.592558 -1.823705 -0.161803
v -0.574394 -1.767803 -0.080902
v -0.556231 -1.711902 0.000000
v -0.538067 -1.656000 0.080902
v -0.519903 -1.600098 0.161803
v -0.501740 -1.544197 0.242705
v -0.483576 -1.488295 0.323607
v -0.426578 -2.006893 -0.310858
v -0.413494 -1.945336 -0.233144
v -0.400410 -1.883779 -0.155429
v -0.387325 -1.822223 -0.077715
v -0.374241 -1.760666 0.000000
v -0.361157 -1.699109 0.077715
v -0.348072 -1.637552 0.155429
v -0.334988 -1.575995 0.233144
v -0.321904 -1.514438 0.310858
v -0.216129 -2.056325 -0.297258
v -0.209134 -1.989779 -0.222943
v -0.202140 -1.923232 -0.148629
v -0.195146 -1.856686 -0.074314
v -0.188151 -1.790139 0.000000
v -0.181157 -1.723593 0.074314
v -0.174163 -1.657046 0.148629
v -0.167168 -1.590500 0.222943
v -0.160174 -1.523953 0.297258
v -0.000000 -2.082843 -0.282843
v -0.000000 -2.012132 -0.212132
v -0.000000 -1.941421 -0.141421
v -0.000000 -1.870711 -0.070711
v -0.000000 -1.800000 0.000000
v -0.000000 -1.729289 0.070711
v -0.000000 -1.658579 0.141421
v -0.000000 -1.587868 0.212132
v -0.000000 -1.517157 0.282843
v 0.219223 -2.085769 -0.267652
v 0.211455 -2.011862 -0.200739
v 0.203687 -1.937954 -0.133826
v 0.195919 -1.864047 -0.066913
v 0.188151 -1.790139 0.000000
v 0.180383 -1.716232 0.066913
v 0.172615 -1.642325 0.133826
v 0.164847 -1.568417 0.200739
v 0.157079 -1.494510 0.267652
v 0.438872 -2.064731 -0.251728
v 0.422714 -1.988715 -0.188796
v 0.406557 -1.912698 -0.125864
v 0.390399 -1.836682 -0.062932
v 0.374241 -1.760666 0.000000
v 0.358083 -1.684649 0.062932
v 0.341925 -1.608633 0.125864
v 0.325768 -1.532617 0.188796
v 0.309610 -1.456600 0.251728
v 0.656231 -2.019670 -0.235114
v 0.631231 -1.942728 -0.176336
v 0.606231 -1.865786 -0.117557
v 0.581231 -1.788844 -0.058779
v 0.556231 -1.711902 0.000000
v 0.531231 -1.634960 0.058779
v 0.506231 -1.558018 0.117557
v 0.481231 -1.481075 0.176336
v 0.456231 -1.404133 0.235114
v 0.868573 -1.950847 -0.217856
v 0.834461 -1.874231 -0.163392
v 0.800350 -1.797615 -0.108928
v 0.766238 -1.720998 -0.054464
v 0.732126 -1.644382 0.000000
v 0.698014 -1.567765 0.054464
v 0.663902 -1.491149 0.108928
v 0.629791 -1.414533 0.163392
v 0.595679 -1.337916 0.217856
v 1.073205 -1.858846 -0.200000
v 1.029904 -1.783846 -0.150000
v 0.986603 -1.708846 -0.100000
v 0.943301 -1.633846 -0.050000
v 0.900000 -1.558846 0.000000
v 0.856699 -1.483846 0.050000
v 0.813397 -1.408846 0.100000
v 0.770096 -1.333846 0.150000
v 0.726795 -1.258846 0.200000
v 1.267502 -1.744566 -0.181596
v 1.215130 -1.672482 -0.136197
v 1.162758 -1.600398 -0.090798
v 1.110386 -1.528315 -0.045399
v 1.058013 -1.456231 0.000000
v 1.005641 -1.384147 0.045399
v 0.953269 -1.312063 0.090798
v 0.900897 -1.239979 0.136197
v 0.848525 -1.167895 0.181596
v 1.448948 -1.609219 -0.162695
v 1.387819 -1.541330 -0.122021
v 1.326691 -1.473440 -0.081347
v 1.265563 -1.405550 -0.040674
v 1.204435 -1.337661 0.000000
v 1.143307 -1.269771 0.040674
v 1.082179 -1.201881 0.081347
v 1.021051 -1.133992 0.122021
v 0.959923 -1.066102 0.162695
v 1.615175 -1.454310 -0.143347
v 1.545796 -1.391841 -0.107510
v 1.476418 -1.329373 -0.071674
v 1.407039 -1.266904 -0.035837
v 1.337661 -1.204435 0.000000
v 1.268282 -1.141966 0.035837
v 1.198904 -1.079498 0.071674
v 1.129525 -1.017029 0.107510
v 1.060147 -0.954560 0.143347
v 1.763999 -1.281620 -0.123607
v 1.687057 -1.225719 -0.092705
v 1.610115 -1.169817 -0.061803
v 1.533173 -1.113915 -0.030902
v 1.456231 -1.058013 0.000000
v 1.379289 -1.002112 0.030902
v 1.302346 -0.946210 0.061803
v 1.225404 -0.890308 0.092705
v 1.148462 -0.834407 0.123607
v 1.893452 -1.093185 -0.103528
v 1.809801 -1.044889 -0.077646
v 1.726149 -0.996593 -0.051764
v 1.642497 -0.948296 -0.025882
v 1.558846 -0.900000 0.000000
v 1.475194 -0.851704 0.025882
v 1.391542 -0.803407 0.051764
v 1.307891 -0.755111 0.077646
v 1.224239 -0.706815 0.103528
v 2.001815 -0.891265 -0.083165
v 1.912457 -0.851480 -0.062374
v 1.823098 -0.811696 -0.041582
v 1.733740 -0.771911 -0.020791
v 1.644382 -0.732126 0.000000
v 1.555024 -0.692341 0.020791
v 1.465665 -0.652556 0.041582
v 1.376307 -0.612771 0.062374
v 1.286949 -0.572987 0.083165
v 2.087641 -0.678316 -0.062574
v 1.993706 -0.647794 -0.046930
v 1.899771 -0.617273 -0.031287
v 1.805836 -0.586752 -0.015643
v 1.711902 -0.556231 0.000000
v 1.617967 -0.525709 0.015643
v 1.524032 -0.495188 0.031287
v 1.430097 -0.464667 0.046930
v 1.336163 -0.434146 0.062574
v 2.149781 -0.456950 -0.041811
v 2.052502 -0.436273 -0.031359
v 1.955224 -0.415596 -0.020906
v 1.857945 -0.394918 -0.010453
v 1.760666 -0.374241 0.000000
v 1.663387 -0.353564 0.010453
v 1.566108 -0.332886 0.020906
v 1.468829 -0.312209 0.031359
v 1.371550 -0.291532 0.041811
v 2.187403 -0.229905 -0.020934
v 2.088087 -0.219467 -0.015701
v 1.988771 -0.209028 -0.010467
v 1.889455 -0.198590 -0.005234
v 1.790139 -0.188151 0.000000
v 1.690824 -0.177713 0.005234
v 1.591508 -0.167274 0.010467
v 1.492192 -0.156836 0.015701
v 1.392876 -0.146397 0.020934

vn 0.862546 -0.498149 0.088661
vn 0.869687 -0.487475 0.077535
vn 0.883462 -0.465110 0.056283
vn 0.895623 -0.443115 0.038833
vn 0.906342 -0.421832 0.024524
vn 0.915786 -0.401462 0.012801
vn 0.924111 -0.382111 0.003203
vn 0.931457 -0.363821 -0.004646
vn 0.934949 -0.354687 -0.008264
vn 0.099184 -0.130186 -0.986516
vn 0.096132 -0.109498 -0.989327
vn 0.090273 -0.070430 -0.993424
vn 0.084973 -0.035785 -0.995740
vn 0.080174 -0.004963 -0.996769
vn 0.075824 0.022560 -0.996866
vn 0.071872 0.047231 -0.996295
vn 0.068272 0.069432 -0.995248
vn 0.066552 0.079954 -0.994574
vn 0.162558 -0.108255 -0.980742
vn 0.157521 -0.088006 -0.983586
vn 0.147850 -0.049780 -0.987756
vn 0.139097 -0.015887 -0.990151
vn 0.131171 0.014263 -0.991257
vn 0.123982 0.041183 -0.991429
vn 0.117449 0.065312 -0.990929
vn 0.111498 0.087023 -0.989947
vn 0.108654 0.097311 -0.989305
vn 0.221476 -0.074645 -0.972305
vn 0.214524 -0.055047 -0.975166
vn 0.201172 -0.018069 -0.979389
vn 0.189081 0.014710 -0.981851
vn 0.178125 0.043865 -0.983030
vn 0.168184 0.069892 -0.983275
vn 0.159145 0.093217 -0.982845
vn 0.150908 0.114202 -0.981929
vn 0.146970 0.124145 -0.981319
vn 0.274093 -0.030201 -0.961229
vn 0.265316 -0.011456 -0.964093
vn 0.248460 0.023887 -0.968348
vn 0.233182 0.055207 -0.970865
vn 0.219330 0.083057 -0.972109
vn 0.206751 0.107914 -0.972424
vn 0.195306 0.130185 -0.972063
vn 0.184870 0.150218 -0.971215
vn 0.179880 0.159706 -0.970638
vn 0.318716 0.023949 -0.947548
vn 0.308230 0.041653 -0.950400
vn 0.288085 0.075002 -0.954663
vn 0.269810 0.104540 -0.957222
vn 0.253223 0.130794 -0.958525
vn 0.238149 0.154216 -0.958907
vn 0.224422 0.175195 -0.958614
vn 0.211895 0.194058 -0.957832
vn 0.205903 0.202988 -0.957288
vn 0.353851 0.086428 -0.931300
vn 0.341787 0.102920 -0.934125
vn 0.318609 0.133944 -0.938375
vn 0.297557 0.161401 -0.940962
vn 0.278429 0.185788 -0.942316
vn 0.261026 0.207531 -0.942760
vn 0.245163 0.226993 -0.942534
vn 0.230673 0.244482 -0.941817
vn 0.223740 0.252755 -0.941305
vn 0.378235 0.155641 -0.912532
vn 0.364744 0.170767 -0.915314
vn 0.338819 0.199170 -0.919529
vn 0.315241 0.224276 -0.922130
vn 0.293790 0.246550 -0.923526
vn 0.274248 0.266386 -0.924027
vn 0.256416 0.284123 -0.923864
vn 0.240110 0.300045 -0.923212
vn 0.232304 0.307569 -0.922733
vn 0.390868 0.229816 -0.891295
vn 0.376116 0.243440 -0.894021
vn 0.347759 0.268963 -0.898177
vn 0.321931 0.291479 -0.900778
vn 0.298397 0.311417 -0.902208
vn 0.276929 0.329142 -0.902760
vn 0.257313 0.344963 -0.902657
vn 0.239355 0.359142 -0.902068
vn 0.230755 0.365831 -0.901621
vn 0.391041 0.307042 -0.867647
vn 0.375204 0.319051 -0.870303
vn 0.344754 0.341474 -0.874380
vn 0.316973 0.361193 -0.876965
vn 0.291619 0.378603 -0.878418
vn 0.268454 0.394034 -0.879016
vn 0.247258 0.407768 -0.878970
vn 0.227827 0.420043 -0.878441
vn 0.218516 0.425819 -0.878026
vn 0.378347 0.385322 -0.841653
vn 0.361611 0.395624 -0.844227
vn 0.329424 0.414767 -0.848203
vn 0.300006 0.431519 -0.850757
vn 0.273109 0.446235 -0.852224
vn 0.248495 0.459215 -0.852861
vn 0.225936 0.470713 -0.852867
vn 0.205227 0.480939 -0.852397
vn 0.195298 0.485731 -0.852012
vn 0.352694 0.462617 -0.813383
vn 0.335253 0.471142 -0.815862
vn 0.301699 0.486868 -0.819718
vn 0.270972 0.500516 -0.822227
vn 0.242826 0.512405 -0.823697
vn 0.217021 0.522803 -0.824366
vn 0.193332 0.531935 -0.824419
vn 0.171551 0.539988 -0.824004
vn 0.161103 0.543736 -0.823649
vn 0.314309 0.536896 -0.782913
vn 0.296360 0.543596 -0.785286
vn 0.261818 0.555811 -0.789003
vn 0.230120 0.566257 -0.791453
vn 0.201026 0.575216 -0.792915
vn 0.174302 0.582928 -0.793608
vn 0.149726 0.589589 -0.793705
vn 0.127092 0.595363 -0.793342
vn 0.116229 0.598012 -0.793015
vn 0.263731 0.606186 -0.750323
vn 0.245473 0.611035 -0.752582
vn 0.210324 0.619688 -0.756142
vn 0.177998 0.626869 -0.758519
vn 0.148267 0.632829 -0.759963
vn 0.120903 0.637777 -0.760672
vn 0.095692 0.641885 -0.760807
vn 0.072433 0.645294 -0.760493
vn 0.061264 0.646802 -0.760193
vn 0.201796 0.668617 -0.715702
vn 0.183427 0.671613 -0.717837
vn 0.148051 0.676695 -0.721225
vn 0.115444 0.680586 -0.723516
vn 0.085388 0.683508 -0.724931
vn 0.057669 0.685644 -0.725649
vn 0.032082 0.687141 -0.725815
vn 0.008435 0.688122 -0.725546
vn -0.002926 0.688455 -0.725273
vn 0.129622 0.722472 -0.679141
vn 0.111335 0.723633 -0.681145
vn 0.076107 0.725174 -0.684347
vn 0.043561 0.725787 -0.686539
vn 0.013495 0.725665 -0.687915
vn -0.014291 0.724968 -0.688634
vn -0.039989 0.723822 -0.688827
vn -0.063781 0.722332 -0.688599
vn -0.075217 0.721468 -0.688350
vn 0.048578 0.766222 -0.640737
vn 0.030562 0.765588 -0.642605
vn -0.004155 0.763657 -0.645609
vn -0.036303 0.761038 -0.647690
vn -0.066068 0.757900 -0.649017
vn -0.093632 0.754378 -0.649729
vn -0.119174 0.750582 -0.649942
vn -0.142862 0.746601 -0.649752
vn -0.154253 0.744528 -0.649526
vn -0.039748 0.798566 -0.600593
vn -0.057311 0.796194 -0.602320
vn -0.091167 0.790901 -0.605115
vn -0.122590 0.785132 -0.607075
vn -0.151747 0.779032 -0.608343
vn -0.178803 0.772723 -0.609040
vn -0.203921 0.766296 -0.609267
vn -0.227255 0.759829 -0.609111
vn -0.238480 0.756544 -0.608907
vn -0.133583 0.818462 -0.558816
vn -0.150524 0.814430 -0.560398
vn -0.183186 0.805917 -0.562975
vn -0.213569 0.797110 -0.564805
vn -0.241820 0.788138 -0.566005
vn -0.268087 0.779105 -0.566678
vn -0.292515 0.770093 -0.566914
vn -0.315243 0.761166 -0.566787
vn -0.326178 0.756681 -0.566605
vn -0.231017 0.825151 -0.515516
vn -0.247175 0.819552 -0.516952
vn -0.278333 0.807993 -0.519305
vn -0.307378 0.796294 -0.520994
vn -0.334438 0.784567 -0.522118
vn -0.359641 0.772903 -0.522761
vn -0.383116 0.761376 -0.523000
vn -0.404988 0.750041 -0.522899
vn -0.415510 0.744378 -0.522736
vn -0.330044 0.818174 -0.470810
vn -0.345274 0.811116 -0.472098
vn -0.374640 0.796718 -0.474221
vn -0.402067 0.782299 -0.475763
vn -0.427663 0.767961 -0.476802
vn -0.451538 0.753787 -0.477408
vn -0.473805 0.739841 -0.477644
vn -0.494573 0.726174 -0.477565
vn -0.504561 0.719367 -0.477420
vn -0.428612 0.797385 -0.424816
vn -0.442782 0.788991 -0.425955
vn -0.470095 0.771983 -0.427847
vn -0.495646 0.755045 -0.429235
vn -0.519523 0.738268 -0.430182
vn -0.541819 0.721728 -0.430744
vn -0.562631 0.705485 -0.430972
vn -0.582052 0.689588 -0.430911
vn -0.591384 0.681682 -0.430784
vn -0.524670 0.762953 -0.377657
vn -0.537663 0.753355 -0.378649
vn -0.562692 0.733992 -0.380307
vn -0.586132 0.714758 -0.381537
vn -0.608054 0.695738 -0.382386
vn -0.628535 0.677003 -0.382898
vn -0.647655 0.658611 -0.383112
vn -0.665495 0.640607 -0.383066
vn -0.674055 0.631660 -0.382955
vn -0.616218 0.715355 -0.329459
vn -0.627933 0.704697 -0.330307
vn -0.650478 0.683253 -0.331730
vn -0.671598 0.661968 -0.332798
vn -0.691350 0.640924 -0.333543
vn -0.709797 0.620188 -0.333999
vn -0.727004 0.599816 -0.334195
vn -0.743037 0.579855 -0.334162
vn -0.750713 0.569939 -0.334065
vn -0.701352 0.655368 -0.280352
vn -0.711707 0.643801 -0.281057
vn -0.731597 0.620566 -0.282248
vn -0.750217 0.597495 -0.283151
vn -0.767609 0.574665 -0.283788
vn -0.783823 0.552143 -0.284183
vn -0.798909 0.529986 -0.284357
vn -0.812925 0.508241 -0.284332
vn -0.819608 0.497438 -0.284251
vn -0.778312 0.584051 -0.230467
vn -0.787240 0.571731 -0.231033
vn -0.804340 0.547006 -0.231995
vn -0.820308 0.522428 -0.232732
vn -0.835175 0.498070 -0.233257
vn -0.848978 0.473998 -0.233586
vn -0.861757 0.450271 -0.233734
vn -0.873556 0.426937 -0.233717
vn -0.879147 0.415342 -0.233650
vn -0.845518 0.502714 -0.179938
vn -0.852972 0.489801 -0.180370
vn -0.867179 0.463898 -0.181107
vn -0.880374 0.438103 -0.181677
vn -0.892579 0.412489 -0.182087
vn -0.903818 0.387122 -0.182347
vn -0.914122 0.362060 -0.182466
vn -0.923527 0.337356 -0.182454
vn -0.927932 0.325073 -0.182401
vn -0.901614 0.412889 -0.128902
vn -0.907562 0.399546 -0.129204
vn -0.918807 0.372780 -0.129722
vn -0.929141 0.346070 -0.130126
vn -0.938573 0.319485 -0.130419
vn -0.947122 0.293091 -0.130607
vn -0.954807 0.266949 -0.130694
vn -0.961658 0.241114 -0.130686
vn -0.964794 0.228261 -0.130648
vn -0.945490 0.316296 -0.077496
vn -0.949920 0.302685 -0.077673
vn -0.958169 0.275375 -0.077978
vn -0.965583 0.248055 -0.078219
vn -0.972165 0.220794 -0.078395
vn -0.977923 0.193655 -0.078508
vn -0.982872 0.166703 -0.078561
vn -0.987031 0.139994 -0.078557
vn -0.988828 0.126697 -0.078533
vn -0.976316 0.214798 -0.025859
vn -0.979232 0.201079 -0.025917
vn -0.984483 0.173540 -0.026017
vn -0.988952 0.145919 -0.026097
vn -0.992636 0.118282 -0.026155
vn -0.995534 0.090692 -0.026193
vn -0.997656 0.063213 -0.026211
vn -0.999011 0.035907 -0.026210
vn -0.999408 0.022302 -0.026202
vn -0.993555 0.110358 0.025869
vn -0.994977 0.096687 0.025925
vn -0.997261 0.069230 0.026021
vn -0.998793 0.041616 0.026098
vn -0.999561 0.013906 0.026156
vn -0.999561 -0.013835 0.026194
vn -0.998793 -0.041544 0.026212
vn -0.997261 -0.069159 0.026209
vn -0.996211 -0.082926 0.026201
vn -0.996976 0.004991 0.077549
vn -0.996940 -0.008481 0.077711
vn -0.996320 -0.035554 0.077994
vn -0.994952 -0.062858 0.078223
vn -0.992821 -0.090335 0.078395
vn -0.989914 -0.117924 0.078509
vn -0.986225 -0.145560 0.078563
vn -0.981752 -0.173180 0.078555
vn -0.979224 -0.186960 0.078529
vn -0.986657 -0.099282 0.129038
vn -0.985213 -0.112409 0.129301
vn -0.981781 -0.138808 0.129762
vn -0.977585 -0.165507 0.130137
vn -0.972601 -0.192452 0.130420
vn -0.966812 -0.219582 0.130609
vn -0.960203 -0.246838 0.130698
vn -0.952766 -0.274152 0.130683
vn -0.948743 -0.287786 0.130637
vn -0.962982 -0.200484 0.180198
vn -0.960196 -0.213129 0.180555
vn -0.954072 -0.238578 0.181183
vn -0.947146 -0.264387 0.181697
vn -0.939388 -0.290505 0.182089
vn -0.930773 -0.316876 0.182350
vn -0.921278 -0.343439 0.182472
vn -0.910888 -0.370130 0.182449
vn -0.905371 -0.383458 0.182380
vn -0.926631 -0.296725 0.230889
vn -0.922579 -0.308762 0.231333
vn -0.913909 -0.333003 0.232118
vn -0.904382 -0.357650 0.232765
vn -0.893959 -0.382657 0.233260
vn -0.882606 -0.407972 0.233591
vn -0.870293 -0.433536 0.233744
vn -0.856995 -0.459283 0.233707
vn -0.850004 -0.472142 0.233614
vn -0.878558 -0.386251 0.280973
vn -0.873329 -0.397563 0.281497
vn -0.862285 -0.420356 0.282428
vn -0.850311 -0.443586 0.283199
vn -0.837361 -0.467213 0.283793
vn -0.823391 -0.491185 0.284190
vn -0.808361 -0.515447 0.284372
vn -0.792235 -0.539932 0.284318
vn -0.783806 -0.552160 0.284198
vn -0.819971 -0.467483 0.330313
vn -0.813664 -0.477963 0.330911
vn -0.800437 -0.499091 0.331976
vn -0.786197 -0.520670 0.332864
vn -0.770885 -0.542661 0.333550
vn -0.754449 -0.565018 0.334009
vn -0.736836 -0.587684 0.334215
vn -0.718000 -0.610595 0.334140
vn -0.708187 -0.622031 0.333989
vn -0.752300 -0.539051 0.378773
vn -0.745021 -0.548607 0.379439
vn -0.729823 -0.567875 0.380627
vn -0.713517 -0.587587 0.381622
vn -0.696035 -0.607708 0.382394
vn -0.677313 -0.628193 0.382911
vn -0.657285 -0.648986 0.383137
vn -0.635891 -0.670020 0.383034
vn -0.624770 -0.680506 0.382850
vn -0.677156 -0.599829 0.426222
vn -0.669021 -0.608380 0.426948
vn -0.652078 -0.625618 0.428248
vn -0.633928 -0.643274 0.429342
vn -0.614493 -0.661311 0.430193
vn -0.593692 -0.679687 0.430761
vn -0.571447 -0.698345 0.431002
vn -0.547684 -0.717214 0.430867
vn -0.535345 -0.726602 0.430645
vn -0.596299 -0.648957 0.472528
vn -0.587428 -0.656435 0.473308
vn -0.568980 -0.671501 0.474709
vn -0.549226 -0.686934 0.475892
vn -0.528072 -0.702700 0.476815
vn -0.505426 -0.718754 0.477428
vn -0.481193 -0.735035 0.477678
vn -0.455281 -0.751471 0.477504
vn -0.441837 -0.759619 0.477241
vn -0.511587 -0.685861 0.517564
vn -0.502106 -0.692213 0.518392
vn -0.482404 -0.704988 0.519882
vn -0.461297 -0.718061 0.521146
vn -0.438680 -0.731394 0.522132
vn -0.414444 -0.744938 0.522785
vn -0.388478 -0.758628 0.523038
vn -0.360673 -0.772384 0.522817
vn -0.346250 -0.779163 0.522509
vn -0.424934 -0.710266 0.561207
vn -0.414970 -0.715450 0.562077
vn -0.394273 -0.725846 0.563645
vn -0.372078 -0.736449 0.564979
vn -0.348268 -0.747215 0.566021
vn -0.322717 -0.758089 0.566705
vn -0.295298 -0.769000 0.566955
vn -0.265883 -0.779858 0.566682
vn -0.250625 -0.785153 0.566324
vn -0.338262 -0.722194 0.603336
vn -0.327945 -0.726184 0.604242
vn -0.306514 -0.734140 0.605878
vn -0.283504 -0.742190 0.607272
vn -0.258782 -0.750286 0.608361
vn -0.232209 -0.758362 0.609070
vn -0.203638 -0.766338 0.609309
vn -0.172923 -0.774110 0.608975
vn -0.156988 -0.777821 0.608564
vn -0.253452 -0.721968 0.643835
vn -0.242911 -0.724751 0.644771
vn -0.221012 -0.730232 0.646464
vn -0.197464 -0.735678 0.647909
vn -0.172122 -0.741031 0.649036
vn -0.144830 -0.746213 0.649762
vn -0.115426 -0.751131 0.649984
vn -0.083745 -0.755665 0.649582
vn -0.067304 -0.757709 0.649113
vn -0.172302 -0.710198 0.682592
vn -0.161666 -0.711772 0.683553
vn -0.139561 -0.714771 0.685292
vn -0.115754 -0.717591 0.686778
vn -0.090087 -0.720159 0.687935
vn -0.062391 -0.722386 0.688670
vn -0.032487 -0.724159 0.688868
vn -0.000192 -0.725341 0.688390
vn 0.016574 -0.725656 0.687859
vn -0.096478 -0.687760 0.719499
vn -0.085873 -0.688139 0.720480
vn -0.063823 -0.688676 0.722255
vn -0.040035 -0.688875 0.723773
vn -0.014340 -0.688650 0.724952
vn 0.013442 -0.687893 0.725687
vn 0.043503 -0.686473 0.725853
vn 0.076045 -0.684229 0.725292
vn 0.092947 -0.682772 0.724695
vn -0.027479 -0.655778 0.754454
vn -0.017027 -0.654986 0.755449
vn 0.004715 -0.653106 0.757252
vn 0.028211 -0.650721 0.758793
vn 0.053637 -0.647725 0.759984
vn 0.081184 -0.643992 0.760712
vn 0.111056 -0.639367 0.760839
vn 0.143468 -0.633665 0.760188
vn 0.160311 -0.630418 0.759521
vn 0.033402 -0.615588 0.787360
vn 0.043583 -0.613661 0.788366
vn 0.064773 -0.609434 0.790186
vn 0.087710 -0.604527 0.791741
vn 0.112577 -0.598815 0.792936
vn 0.139572 -0.592149 0.793649
vn 0.168908 -0.584349 0.793729
vn 0.200810 -0.575202 0.792981
vn 0.217396 -0.570168 0.792242
vn 0.085108 -0.568707 0.818125
vn 0.094906 -0.565692 0.819137
vn 0.115310 -0.559212 0.820966
vn 0.137432 -0.551872 0.822527
vn 0.161458 -0.543527 0.823717
vn 0.187589 -0.534005 0.824408
vn 0.216046 -0.523099 0.824434
vn 0.247060 -0.510562 0.823582
vn 0.263192 -0.503768 0.822769
vn 0.126842 -0.516789 0.846664
vn 0.136152 -0.512744 0.847677
vn 0.155549 -0.504124 0.849508
vn 0.176612 -0.494466 0.851065
vn 0.199527 -0.483603 0.852243
vn 0.224495 -0.471335 0.852904
vn 0.251739 -0.457429 0.852870
vn 0.281492 -0.441603 0.851909
vn 0.296975 -0.433098 0.851018
vn 0.158084 -0.461584 0.872897
vn 0.166808 -0.456575 0.873907
vn 0.184993 -0.445951 0.875731
vn 0.204769 -0.434113 0.877278
vn 0.226317 -0.420871 0.878435
vn 0.249837 -0.406001 0.879059
vn 0.275547 -0.389238 0.878958
vn 0.303679 -0.370268 0.877884
vn 0.318326 -0.360126 0.876914
vn 0.178607 -0.404893 0.896750
vn 0.186654 -0.398995 0.897754
vn 0.203438 -0.386519 0.899564
vn 0.221715 -0.372660 0.901092
vn 0.241658 -0.357206 0.902222
vn 0.263462 -0.339906 0.902802
vn 0.287336 -0.320466 0.902629
vn 0.313507 -0.298538 0.901437
vn 0.327137 -0.286853 0.900387
vn 0.188473 -0.348521 0.918156
vn 0.195763 -0.341816 0.919151
vn 0.210975 -0.327657 0.920940
vn 0.227559 -0.311955 0.922443
vn 0.245681 -0.294478 0.923539
vn 0.265520 -0.274950 0.924068
vn 0.287278 -0.253044 0.923818
vn 0.311168 -0.228381 0.922505
vn 0.323616 -0.215269 0.921375
vn 0.188035 -0.294228 0.937055
vn 0.194496 -0.286804 0.938038
vn 0.207983 -0.271145 0.939800
vn 0.222704 -0.253798 0.941270
vn 0.238807 -0.234508 0.942325
vn 0.256460 -0.212975 0.942799
vn 0.275847 -0.188847 0.942468
vn 0.297165 -0.161710 0.941033
vn 0.308276 -0.147307 0.939823
vn 0.177925 -0.243687 0.953394
vn 0.183494 -0.235639 0.954361
vn 0.195124 -0.218675 0.956090
vn 0.207830 -0.199893 0.957523
vn 0.221744 -0.179018 0.958531
vn 0.237015 -0.155728 0.958943
vn 0.253806 -0.129646 0.958527
vn 0.272292 -0.100329 0.956970
vn 0.281930 -0.084786 0.955681
vn 0.159032 -0.198440 0.967125
vn 0.163657 -0.189867 0.968074
vn 0.173319 -0.171804 0.969765
vn 0.183884 -0.151809 0.971154
vn 0.195463 -0.129592 0.972111
vn 0.208183 -0.104813 0.972458
vn 0.222184 -0.077068 0.971954
vn 0.237615 -0.045892 0.970275
vn 0.245662 -0.029376 0.968910
vn 0.132484 -0.159859 0.978209
vn 0.136123 -0.150863 0.979138
vn 0.143727 -0.131913 0.980786
vn 0.152046 -0.110939 0.982128
vn 0.161171 -0.087636 0.983028
vn 0.171203 -0.061648 0.983305
vn 0.182254 -0.032552 0.982712
vn 0.194446 0.000140 0.980913
vn 0.200804 0.017448 0.979476
vn 0.099613 -0.129109 0.986615
vn 0.102233 -0.119793 0.987521
vn 0.107710 -0.100176 0.989123
vn 0.113705 -0.078463 0.990411
vn 0.120284 -0.054340 0.991251
vn 0.127522 -0.027435 0.991456
vn 0.135500 0.002685 0.990774
vn 0.144308 0.036530 0.988858
vn 0.148902 0.054441 0.987352
vn 0.061918 -0.107119 0.992316
vn 0.063498 -0.097591 0.993199
vn 0.066801 -0.077528 0.994750
vn 0.070417 -0.055321 0.995982
vn 0.074388 -0.030649 0.996758
vn 0.078758 -0.003131 0.996889
vn 0.083577 0.027679 0.996117
vn 0.088899 0.062300 0.994090
vn 0.091676 0.080619 0.992520
vn 0.021031 -0.094558 0.995297
vn 0.021559 -0.084925 0.996154
vn 0.022662 -0.064641 0.997651
vn 0.023871 -0.042189 0.998824
vn 0.025198 -0.017243 0.999534
vn 0.026658 0.010584 0.999589
vn 0.028270 0.041740 0.998728
vn 0.030050 0.076754 0.996597
vn 0.030978 0.095279 0.994969

g Mobius_Strip_Parametric_Surface_Group
s 1
f 1//1 10//10 11//11 2//2
f 2//2 11//11 12//12 3//3
f 3//3 12//12 13//13 4//4
f 4//4 13//13 14//14 5//5
f 5//5 14//14 15//15 6//6
f 6//6 15//15 16//16 7//7
f 7//7 16//16 17//17 8//8
f 8//8 17//17 18//18 9//9
f 10//10 19//19 20//20 11//11
f 11//11 20//20 21//21 12//12
f 12//12 21//21 22//22 13//13
f 13//13 22//22 23//23 14//14
f 14//14 23//23 24//24 15//15
f 15//15 24//24 25//25 16//16
f 16//16 25//25 26//26 17//17
f 17//17 26//26 27//27 18//18
f 19//19 28//28 29//29 20//20
f 20//20 29//29 30//30 21//21
f 21//21 30//30 31//31 22//22
f 22//22 31//31 32//32 23//23
f 23//23 32//32 33//33 24//24
f 24//24 33//33 34//34 25//25
f 25//25 34//34 35//35 26//26
f 26//26 35//35 36//36 27//27
f 28//28 37//37 38//38 29//29
f 29//29 38//38 39//39 30//30
f 30//30 39//39 40//40 31//31
f 31//31 40//40 41//41 32//32
f 32//32 41//41 42//42 33//33
f 33//33 42//42 43//43 34//34
f 34//34 43//43 44//44 35//35
f 35//35 44//44 45//45 36//36
f 37//37 46//46 47//47 38//38
f 38//38 47//47 48//48 39//39
f 39//39 48//48 49//49 40//40
f 40//40 49//49 50//50 41//41
f 41//41 50//50 51//51 42//42
f 42//42 51//51 52//52 43//43
f 43//43 52//52 53//53 44//44
f 44//44 53//53 54//54 45//45
f 46//46 55//55 56//56 47//47
f 47//47 56//56 57//57 48//48
f 48//48 57//57 58//58 49//49
f 49//49 58//58 59//59 50//50
f 50//50 59//59 60//60 51//51
f 51//51 60//60 61//61 52//52
f 52//52 61//61 62//62 53//53
f 53//53 62//62 63//63 54//54
f 55//55 64//64 65//65 56//56
f 56//56 65//65 66//66 57//57
f 57//57 66//66 67//67 58//58
f 58//58 67//67 68//68 59//59
f 59//59 68//68 69//69 60//60
f 60//60 69//69 70//70 61//61
f 61//61 70//70 71//71 62//62
f 62//62 71//71 72//72 63//63
f 64//64 73//73 74//74 65//65
f 65//65 74//74 75//75 66//66
f 66//66 75//75 76//76 67//67
f 67//67 76//76 77//77 68//68
f 68//68 77//77 78//78 69//69
f 69//69 78//78 79//79 70//70
f 70//70 79//79 80//80 71//71
f 71//71 80//80 81//81 72//72
f 73//73 82//82 83//83 74//74
f 74//74 83//83 84//84 75//75
f 75//75 84//84 85//85 76//76
f 76//76 85//85 86//86 77//77
f 77//77 86//86 87//87 78//78
f 78//78 87//87 88//88 79//79
f 79//79 88//88 89//89 80//80
f 80//80 89//89 90//90 81//81
f 82//82 91//91 92//92 83//83
f 83//83 92//92 93//93 84//84
f 84//84 93//93 94//94 85//85
f 85//85 94//94 95//95 86//86
f 86//86 95//95 96//96 87//87
f 87//87 96//96 97//97 88//88
f 88//88 97//97 98//98 89//89
f 89//89 98//98 99//99 90//90
f 91//91 100//100 101//101 92//92
f 92//92 101//101 102//102 93//93
f 93//93 102//102 103//103 94//94
f 94//94 103//103 104//104 95//95
f 95//95 104//104 105//105 96//96
f 96//96 105//105 106//106 97//97
f 97//97 106//106 107//107 98//98
f 98//98 107//107 108//108 99//99
f 100//100 109//109 110//110 101//101
f 101//101 110//110 111//111 102//102
f 102//102 111//111 112//112 103//103
f 103//103 112//112 113//113 104//104
f 104//104 113//113 114//114 105//105
f 105//105 114//114 115//115 106//106
f 106//106 115//115 116//116 107//107
f 107//107 116//116 117//117 108//108
f 109//109 118//118 119//119 110//110
f 110//110 119//119 120//120 111//111
f 111//111 120//120 121//121 112//112
f 112//112 121//121 122//122 113//113
f 113//113 122//122 123//123 114//114
f 114//114 123//123 124//124 115//115
f 115//115 124//124 125//125 116//116
f 116//116 125//125 126//126 117//117
f 118//118 127//127 128//128 119//119
f 119//119 128//128 129//129 120//120
f 120//120 129//129 130//130 121//121
f 121//121 130//130 131//131 122//122
f 122//122 131//131 132//132 123//123
f 123//123 132//132 133//133 124//124
f 124//124 133//133 134//134 125//125
f 125//125 134//134 135//135 126//126
f 127//127 136//136 137//137 128//128
f 128//128 137//137 138//138 129//129
f 129//129 138//138 139//139 130//130
f 130//130 139//139 140//140 131//131
f 131//131 140//140 141//141 132//132
f 132//132 141//141 142//142 133//133
f 133//133 142//142 143//143 134//134
f 134//134 143//143 144//144 135//135
f 136//136 145//145 146//146 137//137
f 137//137 146//146 147//147 138//138
f 138//138 147//147 148//148 139//139
f 139//139 148//148 149//149 140//140
f 140//140 149//149 150//150 141//141
f 141//141 150//150 151//151 142//142
f 142//142 151//151 152//152 143//143
f 143//143 152//152 153//153 144//144
f 145//145 154//154 155//155 146//146
f 146//146 155//155 156//156 147//147
f 147//147 156//156 157//157 148//148
f 148//148 157//157 158//158 149//149
f 149//149 158//158 159//159 150//150
f 150//150 159//159 160//160 151//151
f 151//151 160//160 161//161 152//152
f 152//152 161//161 162//162 153//153
f 154//154 163//163 164//164 155//155
f 155//155 164//164 165//165 156//156
f 156//156 165//165 166//166 157//157
f 157//157 166//166 167//167 158//158
f 158//158 167//167 168//168 159//159
f 159//159 168//168 169//169 160//160
f 160//160 169//169 170//170 161//161
f 161//161 170//170 171//171 162//162
f 163//163 172//172 173//173 164//164
f 164//164 173//173 174//174 165//165
f 165//165 174//174 175//175 166//166
f 166//166 175//175 176//176 167//167
f 167//167 176//176 177//177 168//168
f 168//168 177//177 178//178 169//169
f 169//169 178//178 179//179 170//170
f 170//170 179//179 180//180 171//171
f 172//172 181//181 182//182 173//173
f 173//173 182//182 183//183 174//174
f 174//174 183//183 184//184 175//175
f 175//175 184//184 185//185 176//176
f 176//176 185//185 186//186 177//177
f 177//177 186//186 187//187 178//178
f 178//178 187//187 188//188 179//179
f 179//179 188//188 189//189 180//180
f 181//181 190//190 191//191 182//182
f 182//182 191//191 192//192 183//183
f 183//183 192//192 193//193 184//184
f 184//184 193//193 194//194 185//185
f 185//185 194//194 195//195 186//186
f 186//186 195//195 196//196 187//187
f 187//187 196//196 197//197 188//188
f 188//188 197//197 198//198 189//189
f 190//190 199//199 200//200 191//191
f 191//191 200//200 201//201 192//192
f 192//192 201//201 202//202 193//193
f 193//193 202//202 203//203 194//194
f 194//194 203//203 204//204 195//195
f 195//195 204//204 205//205 196//196
f 196//196 205//205 206//206 197//197
f 197//197 206//206 207//207 198//198
f 199//199 208//208 209//209 200//200
f 200//200 209//209 210//210 201//201
f 201//201 210//210 211//211 202//202
f 202//202 211//211 212//212 203//203
f 203//203 212//212 213//213 204//204
f 204//204 213//213 214//214 205//205
f 205//205 214//214 215//215 206//206
f 206//206 215//215 216//216 207//207
f 208//208 217//217 218//218 209//209
f 209//209 218//218 219//219 210//210
f 210//210 219//219 220//220 211//211
f 211//211 220//220 221//221 212//212
f 212//212 221//221 222//222 213//213
f 213//213 222//222 223//223 214//214
f 214//214 223//223 224//224 215//215
f 215//215 224//224 225//225 216//216
f 217//217 226//226 227//227 218//218
f 218//218 227//227 228//228 219//219
f 219//219 228//228 229//229 220//220
f 220//220 229//229 230//230 221//221
f 221//221 230//230 231//231 222//222
f 222//222 231//231 232//232 223//223
f 223//223 232//232 233//233 224//224
f 224//224 233//233 234//234 225//225
f 226//226 235//235 236//236 227//227
f 227//227 236//236 237//237 228//228
f 228//228 237//237 238//238 229//229
f 229//229 238//238 239//239 230//230
f 230//230 239//239 240//240 231//231
f 231//231 240//240 241//241 232//232
f 232//232 241//241 242//242 233//233
f 233//233 242//242 243//243 234//234
f 235//235 244//244 245//245 236//236
f 236//236 245//245 246//246 237//237
f 237//237 246//246 247//247 238//238
f 238//238 247//247 248//248 239//239
f 239//239 248//248 249//249 240//240
f 240//240 249//249 250//250 241//241
f 241//241 250//250 251//251 242//242
f 242//242 251//251 252//252 243//243
f 244//244 253//253 254//254 245//245
f 245//245 254//254 255//255 246//246
f 246//246 255//255 256//256 247//247
f 247//247 256//256 257//257 248//248
f 248//248 257//257 258//258 249//249
f 249//249 258//258 259//259 250//250
f 250//250 259//259 260//260 251//251
f 251//251 260//260 261//261 252//252
f 253//253 262//262 263//263 254//254
f 254//254 263//263 264//264 255//255
f 255//255 264//264 265//265 256//256
f 256//256 265//265 266//266 257//257
f 257//257 266//266 267//267 258//258
f 258//258 267//267 268//268 259//259
f 259//259 268//268 269//269 260//260
f 260//260 269//269 270//270 261//261
f 262//262 271//271 272//272 263//263
f 263//263 272//272 273//273 264//264
f 264//264 273//273 274//274 265//265
f 265//265 274//274 275//275 266//266
f 266//266 275//275 276//276 267//267
f 267//267 276//276 277//277 268//268
f 268//268 277//277 278//278 269//269
f 269//269 278//278 279//279 270//270
f 271//271 280//280 281//281 272//272
f 272//272 281//281 282//282 273//273
f 273//273 282//282 283//283 274//274
f 274//274 283//283 284//284 275//275
f 275//275 284//284 285//285 276//276
f 276//276 285//285 286//286 277//277
f 277//277 286//286 287//287 278//278
f 278//278 287//287 288//288 279//279
f 280//280 289//289 290//290 281//281
f 281//281 290//290 291//291 282//282
f 282//282 291//291 292//292 283//283
f 283//283 292//292 293//293 284//284
f 284//284 293//293 294//294 285//285
f 285//285 294//294 295//295 286//286
f 286//286 295//295 296//296 287//287
f 287//287 296//296 297//297 288//288
f 289//289 298//298 299//299 290//290
f 290//290 299//299 300//300 291//291
f 291//291 300//300 301//301 292//292
f 292//292 301//301 302//302 293//293
f 293//293 302//302 303//303 294//294
f 294//294 303//303 304//304 295//295
f 295//295 304//304 305//305 296//296
f 296//296 305//305 306//306 297//297
f 298//298 307//307 308//308 299//299
f 299//299 308//308 309//309 300//300
f 300//300 309//309 310//310 301//301
f 301//301 310//310 311//311 302//302
f 302//302 311//311 312//312 303//303
f 303//303 312//312 313//313 304//304
f 304//304 313//313 314//314 305//305
f 305//305 314//314 315//315 306//306
f 307//307 316//316 317//317 308//308
f 308//308 317//317 318//318 309//309
f 309//309 318//318 319//319 310//310
f 310//310 319//319 320//320 311//311
f 311//311 320//320 321//321 312//312
f 312//312 321//321 322//322 313//313
f 313//313 322//322 323//323 314//314
f 314//314 323//323 324//324 315//315
f 316//316 325//325 326//326 317//317
f 317//317 326//326 327//327 318//318
f 318//318 327//327 328//328 319//319
f 319//319 328//328 329//329 320//320
f 320//320 329//329 330//330 321//321
f 321//321 330//330 331//331 322//322
f 322//322 331//331 332//332 323//323
f 323//323 332//332 333//333 324//324
f 325//325 334//334 335//335 326//326
f 326//326 335//335 336//336 327//327
f 327//327 336//336 337//337 328//328
f 328//328 337//337 338//338 329//329
f 329//329 338//338 339//339 330//330
f 330//330 339//339 340//340 331//331
f 331//331 340//340 341//341 332//332
f 332//332 341//341 342//342 333//333
f 334//334 343//343 344//344 335//335
f 335//335 344//344 345//345 336//336
f 336//336 345//345 346//346 337//337
f 337//337 346//346 347//347 338//338
f 338//338 347//347 348//348 339//339
f 339//339 348//348 349//349 340//340
f 340//340 349//349 350//350 341//341
f 341//341 350//350 351//351 342//342
f 343//343 352//352 353//353 344//344
f 344//344 353//353 354//354 345//345
f 345//345 354//354 355//355 346//346
f 346//346 355//355 356//356 347//347
f 347//347 356//356 357//357 348//348
f 348//348 357//357 358//358 349//349
f 349//349 358//358 359//359 350//350
f 350//350 359//359 360//360 351//351
f 352//352 361//361 362//362 353//353
f 353//353 362//362 363//363 354//354
f 354//354 363//363 364//364 355//355
f 355//355 364//364 365//365 356//356
f 356//356 365//365 366//366 357//357
f 357//357 366//366 367//367 358//358
f 358//358 367//367 368//368 359//359
f 359//359 368//368 369//369 360//360
f 361//361 370//370 371//371 362//362
f 362//362 371//371 372//372 363//363
f 363//363 372//372 373//373 364//364
f 364//364 373//373 374//374 365//365
f 365//365 374//374 375//375 366//366
f 366//366 375//375 376//376 367//367
f 367//367 376//376 377//377 368//368
f 368//368 377//377 378//378 369//369
f 370//370 379//379 380//380 371//371
f 371//371 380//380 381//381 372//372
f 372//372 381//381 382//382 373//373
f 373//373 382//382 383//383 374//374
f 374//374 383//383 384//384 375//375
f 375//375 384//384 385//385 376//376
f 376//376 385//385 386//386 377//377
f 377//377 386//386 387//387 378//378
f 379//379 388//388 389//389 380//380
f 380//380 389//389 390//390 381//381
f 381//381 390//390 391//391 382//382
f 382//382 391//391 392//392 383//383
f 383//383 392//392 393//393 384//384
f 384//384 393//393 394//394 385//385
f 385//385 394//394 395//395 386//386
f 386//386 395//395 396//396 387//387
f 388//388 397//397 398//398 389//389
f 389//389 398//398 399//399 390//390
f 390//390 399//399 400//400 391//391
f 391//391 400//400 401//401 392//392
f 392//392 401//401 402//402 393//393
f 393//393 402//402 403//403 394//394
f 394//394 403//403 404//404 395//395
f 395//395 404//404 405//405 396//396
f 397//397 406//406 407//407 398//398
f 398//398 407//407 408//408 399//399
f 399//399 408//408 409//409 400//400
f 400//400 409//409 410//410 401//401
f 401//401 410//410 411//411 402//402
f 402//402 411//411 412//412 403//403
f 403//403 412//412 413//413 404//404
f 404//404 413//413 414//414 405//405
f 406//406 415//415 416//416 407//407
f 407//407 416//416 417//417 408//408
f 408//408 417//417 418//418 409//409
f 409//409 418//418 419//419 410//410
f 410//410 419//419 420//420 411//411
f 411//411 420//420 421//421 412//412
f 412//412 421//421 422//422 413//413
f 413//413 422//422 423//423 414//414
f 415//415 424//424 425//425 416//416
f 416//416 425//425 426//426 417//417
f 417//417 426//426 427//427 418//418
f 418//418 427//427 428//428 419//419
f 419//419 428//428 429//429 420//420
f 420//420 429//429 430//430 421//421
f 421//421 430//430 431//431 422//422
f 422//422 431//431 432//432 423//423
f 424//424 433//433 434//434 425//425
f 425//425 434//434 435//435 426//426
f 426//426 435//435 436//436 427//427
f 427//427 436//436 437//437 428//428
f 428//428 437//437 438//438 429//429
f 429//429 438//438 439//439 430//430
f 430//430 439//439 440//440 431//431
f 431//431 440//440 441//441 432//432
f 433//433 442//442 443//443 434//434
f 434//434 443//443 444//444 435//435
f 435//435 444//444 445//445 436//436
f 436//436 445//445 446//446 437//437
f 437//437 446//446 447//447 438//438
f 438//438 447//447 448//448 439//439
f 439//439 448//448 449//449 440//440
f 440//440 449//449 450//450 441//441
f 442//442 451//451 452//452 443//443
f 443//443 452//452 453//453 444//444
f 444//444 453//453 454//454 445//445
f 445//445 454//454 455//455 446//446
f 446//446 455//455 456//456 447//447
f 447//447 456//456 457//457 448//448
f 448//448 457//457 458//458 449//449
f 449//449 458//458 459//459 450//450
f 451//451 460//460 461//461 452//452
f 452//452 461//461 462//462 453//453
f 453//453 462//462 463//463 454//454
f 454//454 463//463 464//464 455//455
f 455//455 464//464 465//465 456//456
f 456//456 465//465 466//466 457//457
f 457//457 466//466 467//467 458//458
f 458//458 467//467 468//468 459//459
f 460//460 469//469 470//470 461//461
f 461//461 470//470 471//471 462//462
f 462//462 471//471 472//472 463//463
f 463//463 472//472 473//473 464//464
f 464//464 473//473 474//474 465//465
f 465//465 474//474 475//475 466//466
f 466//466 475//475 476//476 467//467
f 467//467 476//476 477//477 468//468
f 469//469 478//478 479//479 470//470
f 470//470 479//479 480//480 471//471
f 471//471 480//480 481//481 472//472
f 472//472 481//481 482//482 473//473
f 473//473 482//482 483//483 474//474
f 474//474 483//483 484//484 475//475
f 475//475 484//484 485//485 476//476
f 476//476 485//485 486//486 477//477
f 478//478 487//487 488//488 479//479
f 479//479 488//488 489//489 480//480
f 480//480 489//489 490//490 481//481
f 481//481 490//490 491//491 482//482
f 482//482 491//491 492//492 483//483
f 483//483 492//492 493//493 484//484
f 484//484 493//493 494//494 485//485
f 485//485 494//494 495//495 486//486
f 487//487 496//496 497//497 488//488
f 488//488 497//497 498//498 489//489
f 489//489 498//498 499//499 490//490
f 490//490 499//499 500//500 491//491
f 491//491 500//500 501//501 492//492
f 492//492 501//501 502//502 493//493
f 493//493 502//502 503//503 494//494
f 494//494 503//503 504//504 495//495
f 496//496 505//505 506//506 497//497
f 497//497 506//506 507//507 498//498
f 498//498 507//507 508//508 499//499
f 499//499 508//508 509//509 500//500
f 500//500 509//509 510//510 501//501
f 501//501 510//510 511//511 502//502
f 502//502 511//511 512//512 503//503
f 503//503 512//512 513//513 504//504
f 505//505 514//514 515//515 506//506
f 506//506 515//515 516//516 507//507
f 507//507 516//516 517//517 508//508
f 508//508 517//517 518//518 509//509
f 509//509 518//518 519//519 510//510
f 510//510 519//519 520//520 511//511
f 511//511 520//520 521//521 512//512
f 512//512 521//521 522//522 513//513
f 514//514 523//523 524//524 515//515
f 515//515 524//524 525//525 516//516
f 516//516 525//525 526//526 517//517
f 517//517 526//526 527//527 518//518
f 518//518 527//527 528//528 519//519
f 519//519 528//528 529//529 520//520
f 520//520 529//529 530//530 521//521
f 521//521 530//530 531//531 522//522
f 523//523 532//532 533//533 524//524
f 524//524 533//533 534//534 525//525
f 525//525 534//534 535//535 526//526
f 526//526 535//535 536//536 527//527
f 527//527 536//536 537//537 528//528
f 528//528 537//537 538//538 529//529
f 529//529 538//538 539//539 530//530
f 530//530 539//539 540//540 531//531
f 532//532 9//9 8//8 533//533
f 533//533 8//8 7//7 534//534
f 534//534 7//7 6//6 535//535
f 535//535 6//6 5//5 536//536
f 536//536 5//5 4//4 537//537
f 537//537 4//4 3//3 538//538
f 538//538 3//3 2//2 539//539
f 539//539 2//2 1//1 540//540
